<svg width="133" height="42" viewBox="0 0 133 42" fill="none" xmlns="http://www.w3.org/2000/svg">
<path d="M91.5456 17.5248C91.5567 17.4015 91.5673 17.3364 91.5673 17.2709C91.5664 13.4706 91.5645 9.67036 91.5627 5.86964C91.5627 5.35681 91.5632 5.35635 92.0736 5.35635C93.9496 5.35635 95.8256 5.36004 97.7016 5.35173C97.9253 5.35081 98.005 5.3942 98.005 5.6393C97.998 12.8249 97.998 20.01 98.0036 27.1955C98.0036 27.4203 97.9559 27.5006 97.7118 27.4992C95.7357 27.4886 93.7592 27.4909 91.7827 27.4951C91.628 27.4955 91.5307 27.4535 91.4413 27.3215C90.3648 25.7304 89.2805 24.1444 88.2017 22.5547C86.6282 20.2352 85.0574 17.9139 83.4853 15.5935C83.4441 15.5325 83.395 15.4762 83.2889 15.4291C83.2889 19.4427 83.2889 23.4562 83.2889 27.4942C83.1221 27.4942 83.0008 27.4942 82.879 27.4942C80.9798 27.4942 79.0807 27.4909 77.1815 27.4988C76.9657 27.4997 76.8902 27.4508 76.8906 27.2204C76.8966 20.0197 76.8962 12.8189 76.8916 5.61807C76.8916 5.42236 76.9328 5.35127 77.1454 5.35219C79.1061 5.3605 81.0674 5.36004 83.0281 5.3545C83.1879 5.35404 83.2764 5.40851 83.363 5.53637C84.6808 7.48335 86.0033 9.4271 87.3248 11.3718C87.8204 12.1016 88.3161 12.8313 88.8108 13.5616C89.6747 14.8369 90.5376 16.1128 91.4024 17.3877C91.427 17.4232 91.4659 17.4491 91.5456 17.5248Z" fill="#EE1C25"/>
<path d="M118.928 23.3634C118.592 23.8398 118.307 24.2746 117.991 24.6864C117.232 25.6765 116.309 26.4741 115.157 26.9832C114.292 27.3654 113.383 27.5962 112.442 27.6807C111.583 27.7582 110.721 27.8409 109.859 27.8432C108.578 27.8469 107.3 27.7453 106.061 27.3857C104.631 26.9708 103.463 26.1667 102.528 25.0095C101.544 23.7918 100.952 22.4066 100.77 20.8649C100.561 19.0998 100.686 17.36 101.46 15.7241C102.331 13.8819 103.727 12.5789 105.628 11.8246C106.614 11.4332 107.642 11.2315 108.703 11.1613C110.056 11.0718 111.4 11.1198 112.733 11.3598C115.379 11.8362 117.364 13.1993 118.462 15.7015C118.878 16.6492 119.099 17.6527 119.172 18.6843C119.226 19.4501 119.255 20.2173 119.297 21.0163C115.157 21.0163 111.064 21.0163 106.906 21.0163C106.983 21.3809 107.039 21.7087 107.123 22.029C107.379 22.9974 107.97 23.7078 108.904 24.0618C109.747 24.3813 110.61 24.3222 111.451 23.9727C111.981 23.753 112.381 23.3819 112.734 22.9517C112.831 22.8335 112.924 22.7929 113.066 22.8068C113.887 22.8857 114.708 22.9614 115.53 23.0385C116.335 23.1142 117.141 23.1894 117.947 23.2661C118.245 23.2942 118.543 23.3251 118.928 23.3634ZM109.983 18.0953C109.983 18.0949 109.983 18.0944 109.983 18.0944C110.908 18.0944 111.833 18.0912 112.758 18.0972C112.942 18.0986 113.038 18.0667 112.988 17.8535C112.939 17.6448 112.926 17.4279 112.88 17.2188C112.696 16.3884 112.373 15.6401 111.606 15.1675C111.062 14.8328 110.466 14.7313 109.837 14.7557C109.113 14.7839 108.494 15.0438 107.974 15.5469C107.343 16.1571 107.099 16.9372 106.983 17.7731C106.938 18.0958 106.941 18.0953 107.277 18.0953C108.179 18.0953 109.081 18.0953 109.983 18.0953Z" fill="#EE1C25"/>
<path d="M25.9633 27.4564C25.9591 27.3738 25.9531 27.3069 25.9531 27.2395C25.9531 22.1011 25.9531 16.9627 25.9536 11.8247C25.9536 11.4882 25.9541 11.4896 26.2996 11.4891C27.9746 11.4891 29.6495 11.4882 31.3245 11.4873C31.6089 11.4873 31.6228 11.4979 31.6228 11.786C31.6228 12.4474 31.62 13.1089 31.6214 13.7703C31.6214 13.8488 31.6408 13.9268 31.6598 14.0685C31.8984 13.8105 32.0971 13.6037 32.287 13.3886C32.7586 12.855 33.3005 12.4054 33.9004 12.0218C34.6281 11.5565 35.435 11.2925 36.2812 11.2048C37.8714 11.04 39.4273 11.1236 40.7864 12.1225C41.4214 12.5891 41.8749 13.1929 42.1978 13.9097C42.7092 15.0462 42.8134 16.25 42.8166 17.4681C42.8254 20.6988 42.8194 23.9294 42.8189 27.1601C42.8189 27.4652 42.8185 27.468 42.528 27.468C40.7683 27.4675 39.0081 27.4652 37.2484 27.4634C37.1104 27.4634 36.9714 27.4708 36.8357 27.4523C36.7866 27.4458 36.7287 27.3826 36.7069 27.3314C36.6847 27.2792 36.7004 27.2104 36.7004 27.149C36.7004 24.3647 36.7037 21.58 36.6963 18.7956C36.6953 18.383 36.675 17.9648 36.6078 17.5586C36.3915 16.2541 35.422 15.7958 34.2487 15.9139C33.5673 15.9827 33.0485 16.3197 32.6534 16.8579C32.3593 17.2586 32.2273 17.7298 32.1768 18.2108C32.1077 18.8741 32.0573 19.5425 32.0526 20.2095C32.0378 22.5017 32.0466 24.794 32.0461 27.0863C32.0461 27.4694 32.0448 27.4648 31.6714 27.4648C29.8575 27.4652 28.044 27.4684 26.2301 27.4703C26.1467 27.4703 26.0634 27.4615 25.9633 27.4564Z" fill="#007CC2"/>
<path d="M18.2167 12.0393C18.2167 12.1113 18.2255 12.1796 18.2153 12.2451C18.067 13.1863 17.9156 14.127 17.7664 15.0678C17.5089 16.6902 17.2504 18.3127 16.9952 19.9357C16.7738 21.3463 16.5542 22.7578 16.3393 24.1694C16.2508 24.751 16.4699 24.997 17.0531 24.9878C17.6038 24.9785 18.0689 24.7284 18.4932 24.42C20.2427 23.1474 21.1112 21.3726 21.4156 19.2779C21.5703 18.2126 21.5619 17.1458 21.4424 16.0837C21.3804 15.5307 21.2386 14.9814 21.0834 14.4446C20.6582 12.974 19.8416 11.7508 18.653 10.7796C17.8753 10.1435 16.9993 9.69116 16.0359 9.39898C14.7245 9.00109 13.3789 8.92862 12.0305 9.04263C10.3463 9.18526 8.78531 9.72809 7.37901 10.6794C5.68368 11.826 4.57059 13.4148 3.85726 15.3032C3.44732 16.3874 3.18422 17.5073 3.08972 18.6631C2.9137 20.8215 3.09111 22.9402 3.94851 24.9513C4.22365 25.5961 4.59144 26.2165 5.00369 26.7857C6.09454 28.2909 7.52678 29.3784 9.29391 29.9896C10.8299 30.5208 12.4145 30.6658 14.0344 30.5098C15.2012 30.3971 16.3286 30.1257 17.4088 29.6932C18.5256 29.2464 19.5678 28.65 20.5243 27.9129C20.6036 27.8519 20.7147 27.7998 20.8115 27.7988C21.7069 27.7901 22.6023 27.7938 23.4981 27.7947C23.5338 27.7947 23.569 27.8053 23.6589 27.8196C23.3522 28.1529 23.0789 28.4594 22.7954 28.7562C21.7088 29.894 20.4238 30.7516 19.0013 31.414C17.873 31.9398 16.7001 32.3413 15.4731 32.5463C14.2238 32.7549 12.9653 32.8149 11.6947 32.6903C10.6293 32.5855 9.59268 32.3834 8.58845 32.0215C7.38504 31.5876 6.27705 30.9801 5.2881 30.1668C3.52282 28.7156 2.3472 26.866 1.59496 24.7293C0.931181 22.8432 0.738488 20.8958 0.857068 18.916C0.956658 17.2478 1.32398 15.6309 1.99424 14.0947C2.86924 12.09 4.10785 10.3499 5.87591 9.02555C7.13907 8.07976 8.54861 7.44184 10.0994 7.10996C11.6072 6.78684 13.126 6.73607 14.6518 6.89486C16.0289 7.03795 17.3393 7.4303 18.5451 8.11622C20.4711 9.21157 21.8991 10.7653 22.8005 12.7926C23.1938 13.6774 23.4314 14.6011 23.5815 15.5566C23.7385 16.5573 23.777 17.5571 23.6973 18.5643C23.6056 19.727 23.3582 20.8505 22.9251 21.9399C22.4175 23.2176 21.7009 24.3471 20.6967 25.2901C19.9514 25.9899 19.1259 26.5812 18.1782 26.9749C17.3861 27.304 16.5667 27.527 15.6899 27.4956C14.5291 27.454 13.6684 26.7026 13.485 25.5541C13.3641 24.7953 13.485 24.0535 13.6027 23.309C13.7546 22.3461 13.8996 21.3823 14.0506 20.4194C14.253 19.1311 14.4596 17.8438 14.6634 16.5555C14.8913 15.1139 15.1197 13.6724 15.3434 12.2304C15.3633 12.1016 15.3879 12.012 15.5467 12.0125C16.4037 12.0162 17.2606 12.0143 18.1175 12.0162C18.1467 12.0153 18.1754 12.0291 18.2167 12.0393Z" fill="#007CC2"/>
<path d="M65.0019 27.8552C63.9083 27.8169 62.8332 27.7107 61.7817 27.4065C60.5435 27.0483 59.4397 26.469 58.4776 25.5938C57.4938 24.6988 56.7633 23.6506 56.3219 22.4066C55.899 21.2148 55.7966 19.9772 55.8906 18.7231C55.9726 17.6319 56.2334 16.5841 56.7462 15.6106C57.5739 14.0394 58.7824 12.8558 60.3907 12.079C61.337 11.622 62.3343 11.3631 63.3756 11.2407C64.8884 11.063 66.3855 11.1193 67.8766 11.4471C69.6326 11.833 71.1292 12.6504 72.3016 14.0209C73.1001 14.9547 73.6333 16.0228 73.927 17.2174C74.2521 18.5394 74.2651 19.8711 74.0289 21.1972C73.7343 22.8525 72.9769 24.2774 71.7494 25.4512C70.3899 26.7515 68.7502 27.4347 66.9075 27.677C66.2757 27.7605 65.6374 27.797 65.0019 27.8552ZM62.2069 21.4977C62.4038 22.293 62.8623 22.9568 63.5951 23.3514C65.3359 24.2885 67.3749 23.4396 67.8724 21.4119C68.116 20.419 68.1387 19.4141 68.028 18.4111C67.946 17.6684 67.7191 16.9617 67.229 16.3579C65.9922 14.8328 63.5437 15.0267 62.5376 16.7997C62.0596 17.6425 62.0476 20.8538 62.2069 21.4977Z" fill="#007CC2"/>
<path d="M46.4754 15.9465C45.781 15.9465 45.1251 15.9377 44.4697 15.9516C44.2506 15.9562 44.1973 15.8847 44.1987 15.6751C44.2075 14.3753 44.2094 13.0754 44.1973 11.7756C44.195 11.5416 44.283 11.4866 44.4896 11.489C45.0529 11.4954 45.6166 11.488 46.1798 11.4917C46.5027 11.494 46.4851 11.4982 46.5069 11.1645C46.5624 10.3147 46.5972 9.46073 46.7125 8.61787C46.8181 7.84286 47.091 7.1117 47.6334 6.51487C48.2073 5.88295 48.9234 5.47814 49.747 5.27181C50.943 4.97224 52.1598 4.98424 53.379 5.07563C54.2151 5.13841 55.0507 5.20673 55.8859 5.27781C56.1388 5.29951 56.3898 5.34243 56.6423 5.36782C56.8095 5.3849 56.7873 5.48783 56.7669 5.60046C56.6654 6.15991 56.5658 6.71935 56.4658 7.2788C56.3722 7.79993 56.2731 8.32015 56.1888 8.84266C56.1619 9.01022 56.0841 9.02591 55.9345 9.01391C55.2906 8.96083 54.6459 8.89344 54.0006 8.88513C53.2674 8.8759 52.6782 9.48335 52.6439 10.2191C52.6281 10.557 52.6221 10.8954 52.5925 11.2318C52.5739 11.4433 52.6587 11.4963 52.8542 11.4945C53.6412 11.4866 54.4286 11.4894 55.2161 11.4894C55.526 11.4894 55.5334 11.4959 55.5334 11.7941C55.5343 13.0861 55.5306 14.3785 55.5371 15.6705C55.538 15.8741 55.4875 15.9544 55.2642 15.9507C54.4773 15.9377 53.6898 15.9456 52.9023 15.9456C52.5929 15.9456 52.5929 15.9461 52.5934 16.2456C52.5943 19.8299 52.5957 23.4141 52.5962 26.9983C52.5962 27.5066 52.6443 27.4622 52.1413 27.4627C50.3431 27.4646 48.5445 27.4613 46.7463 27.4701C46.5337 27.471 46.5045 27.3782 46.5045 27.2065C46.5055 25.5914 46.5018 23.9763 46.5013 22.3608C46.5004 20.4073 46.5018 18.4534 46.5004 16.5C46.499 16.3259 46.4846 16.151 46.4754 15.9465Z" fill="#007CC2"/>
<path d="M131.889 23.1476C131.942 23.6069 131.993 24.0325 132.04 24.459C132.13 25.2834 132.218 26.1082 132.306 26.9331C132.315 27.0171 132.342 27.1099 132.317 27.1842C132.291 27.2622 132.222 27.3707 132.156 27.3841C130.534 27.7067 128.902 27.9287 127.242 27.818C126.534 27.7709 125.826 27.7095 125.159 27.4482C123.904 26.9576 123.157 26.0164 122.894 24.7262C122.737 23.9549 122.64 23.1601 122.625 22.3735C122.587 20.3356 122.61 18.2963 122.608 16.2579C122.607 15.9584 122.606 15.9588 122.304 15.9593C121.649 15.9597 120.994 15.9593 120.321 15.9593C120.316 15.8651 120.308 15.7903 120.308 15.7151C120.307 14.3917 120.312 13.0688 120.304 11.7454C120.302 11.5262 120.366 11.4486 120.593 11.4537C121.194 11.4676 121.797 11.4546 122.399 11.4629C122.561 11.4652 122.612 11.414 122.611 11.2529C122.604 10.4142 122.614 9.57596 122.603 8.73725C122.601 8.56277 122.668 8.47922 122.812 8.40491C124.104 7.74253 125.392 7.07369 126.682 6.40854C127.295 6.09235 127.91 5.77847 128.524 5.46597C128.577 5.4392 128.638 5.4272 128.728 5.39766C128.735 5.51536 128.745 5.61091 128.745 5.70646C128.742 7.55282 128.74 9.39871 128.732 11.2451C128.731 11.4214 128.794 11.4639 128.962 11.4625C129.935 11.4546 130.907 11.4592 131.88 11.456C132.037 11.4556 132.143 11.4712 132.142 11.6753C132.135 13.0679 132.138 14.46 132.137 15.8526C132.137 15.8753 132.132 15.8979 132.125 15.95C131.014 15.95 129.9 15.95 128.772 15.95C128.761 16.0354 128.748 16.0936 128.748 16.1518C128.748 18.1214 128.75 20.0905 128.755 22.0601C128.756 22.236 128.777 22.4132 128.806 22.5872C128.904 23.173 129.29 23.5233 129.925 23.4864C130.464 23.455 130.997 23.3142 131.533 23.2205C131.644 23.2007 131.753 23.1753 131.889 23.1476Z" fill="#EE1C25"/>
<path d="M12.3026 27.027C10.4104 27.027 8.55198 27.027 6.6709 27.027C6.77373 26.4486 6.8761 25.885 6.9743 25.3205C7.35459 23.1432 7.7321 20.9649 8.11425 18.7881C8.34632 17.4647 8.58487 16.1427 8.81971 14.8202C8.97396 13.9515 9.13006 13.0828 9.2769 12.2127C9.3033 12.0553 9.35935 11.9916 9.52795 11.9921C11.2724 11.9972 13.0173 11.9949 14.7622 11.9953C14.8141 11.9953 14.8664 12.0087 14.9414 12.0189C14.0614 17.0243 13.1831 22.0178 12.3026 27.027Z" fill="#EE1C25"/>
<path d="M13.3255 5.94779C11.859 5.92471 10.7265 4.74766 10.7524 3.27427C10.7769 1.90196 11.9868 0.741528 13.3765 0.758145C14.8142 0.775224 15.9862 1.97443 15.9639 3.40582C15.9426 4.81921 14.7475 5.97041 13.3255 5.94779Z" fill="#007CC2"/>
<path d="M27.4613 38.2074L25.9795 32.3867H26.7767L27.4701 35.3317C27.6433 36.0573 27.7994 36.7824 27.9032 37.3437H27.9203C28.0157 36.7649 28.1978 36.0744 28.397 35.3229L29.177 32.3867H29.9654L30.6759 35.34C30.8404 36.031 30.9965 36.7215 31.0831 37.335H31.1002C31.2216 36.6961 31.386 36.0481 31.5681 35.3229L32.3393 32.3867H33.1106L31.4555 38.2074H30.6671L29.9306 35.1761C29.7486 34.4334 29.6272 33.8634 29.5494 33.2762H29.5323C29.4285 33.8551 29.2984 34.4247 29.0816 35.1761L28.2497 38.2074H27.4613Z" fill="#08090D"/>
<path d="M33.7705 32.0758H34.5329V34.6838H34.5501C34.6714 34.4678 34.8623 34.2781 35.0962 34.1484C35.3213 34.0187 35.59 33.9323 35.8762 33.9323C36.4395 33.9323 37.3409 34.2776 37.3409 35.7201V38.2071H36.5785V35.8064C36.5785 35.1329 36.3269 34.5629 35.608 34.5629C35.1143 34.5629 34.7243 34.9081 34.5853 35.3227C34.5417 35.4265 34.5334 35.5387 34.5334 35.6855V38.2071H33.771V32.0758H33.7705Z" fill="#08090D"/>
<path d="M40.9019 38.2069L40.8412 37.6802H40.8152C40.5813 38.0084 40.1306 38.302 39.5326 38.302C38.6836 38.302 38.25 37.706 38.25 37.1018C38.25 36.0914 39.1514 35.5389 40.7717 35.5472V35.4609C40.7717 35.1156 40.6763 34.4939 39.8184 34.4939C39.4284 34.4939 39.0212 34.6148 38.7266 34.805L38.5534 34.3041C38.8999 34.0798 39.4025 33.933 39.9314 33.933C41.2141 33.933 41.5258 34.8054 41.5258 35.6427V37.2057C41.5258 37.5685 41.5429 37.9225 41.5953 38.2073H40.9019V38.2069ZM40.7893 36.0739C39.9574 36.0568 39.0129 36.2036 39.0129 37.015C39.0129 37.5071 39.3422 37.7407 39.7323 37.7407C40.2784 37.7407 40.6249 37.3954 40.7462 37.0414C40.7722 36.9638 40.7898 36.8775 40.7898 36.7995V36.0739H40.7893Z" fill="#08090D"/>
<path d="M43.6408 32.8272V34.0274H44.7326V34.6062H43.6408V36.8601C43.6408 37.378 43.7881 37.6721 44.2129 37.6721C44.412 37.6721 44.5593 37.6462 44.6548 37.6204L44.6895 38.1904C44.5422 38.2509 44.3083 38.2943 44.0137 38.2943C43.6584 38.2943 43.3726 38.1821 43.1906 37.9749C42.9738 37.7506 42.896 37.379 42.896 36.8869V34.6071H42.2461V34.0283H42.896V33.0266L43.6408 32.8272Z" fill="#08090D"/>
<path d="M46.7348 32.2914C46.5356 33.017 46.1627 33.9407 45.92 34.3381L45.4346 34.3985C45.6254 33.889 45.8505 32.9907 45.946 32.3689L46.7348 32.2914Z" fill="#08090D"/>
<path d="M46.8383 37.4298C47.0634 37.5766 47.4622 37.7322 47.8435 37.7322C48.3979 37.7322 48.6582 37.4557 48.6582 37.1104C48.6582 36.7476 48.4415 36.5491 47.8782 36.3418C47.1241 36.0741 46.7688 35.6596 46.7688 35.1588C46.7688 34.4853 47.3149 33.9324 48.2159 33.9324C48.6406 33.9324 49.0131 34.0533 49.247 34.1913L49.0561 34.7438C48.8917 34.64 48.5883 34.502 48.1983 34.502C47.7476 34.502 47.4965 34.7609 47.4965 35.072C47.4965 35.4173 47.748 35.5728 48.2937 35.7801C49.0219 36.0566 49.3943 36.4189 49.3943 37.0407C49.3943 37.7746 48.8222 38.293 47.8259 38.293C47.3664 38.293 46.9421 38.1808 46.6475 38.0082L46.8383 37.4298Z" fill="#08090D"/>
<path d="M52.2368 32.3867H55.3824V33.0173H52.9904V34.9518H55.2004V35.5735H52.9904V38.2074H52.2363V32.3867H52.2368Z" fill="#08090D"/>
<path d="M59.6377 37.0674C59.6377 37.499 59.6465 37.8793 59.6725 38.2075H58.9967L58.9531 37.5253H58.936C58.7368 37.8622 58.2949 38.3026 57.5496 38.3026C56.8909 38.3026 56.1025 37.9398 56.1025 36.4719V34.0278H56.865V36.3422C56.865 37.1366 57.1077 37.6721 57.8011 37.6721C58.3125 37.6721 58.6678 37.318 58.8063 36.9811C58.8498 36.8689 58.8758 36.7304 58.8758 36.5924V34.0274H59.6382V37.0674H59.6377Z" fill="#08090D"/>
<path d="M61.3273 36.2555C61.3444 37.283 62.0031 37.7063 62.766 37.7063C63.3121 37.7063 63.6415 37.6112 63.9273 37.4903L64.0574 38.0345C63.7888 38.1554 63.3293 38.2934 62.6623 38.2934C61.3708 38.2934 60.5996 37.4474 60.5996 36.1863C60.5996 34.9252 61.3449 33.9324 62.5668 33.9324C63.9361 33.9324 64.3002 35.1325 64.3002 35.9015C64.3002 36.057 64.283 36.178 64.2742 36.2555H61.3273ZM63.5632 35.7113C63.572 35.2276 63.364 34.4766 62.5062 34.4766C61.7349 34.4766 61.3968 35.1846 61.3361 35.7113H63.5632Z" fill="#08090D"/>
<path d="M65.2441 32.0758H66.0066V38.2071H65.2441V32.0758Z" fill="#08090D"/>
<path d="M68.1393 32.8535C68.1481 33.1125 67.9572 33.3197 67.6538 33.3197C67.3852 33.3197 67.1943 33.1125 67.1943 32.8535C67.1943 32.5858 67.3935 32.3785 67.671 32.3785C67.9572 32.3785 68.1393 32.5858 68.1393 32.8535ZM67.2898 38.2075V34.0278H68.0522V38.2075H67.2898Z" fill="#08090D"/>
<path d="M69.3179 35.159C69.3179 34.7274 69.3091 34.3729 69.2832 34.0276H69.959L70.0026 34.7186H70.0197C70.2277 34.3212 70.7131 33.933 71.4061 33.933C71.9865 33.933 72.8879 34.2783 72.8879 35.712V38.2078H72.1254V35.7983C72.1254 35.1248 71.8739 34.5636 71.155 34.5636C70.6524 34.5636 70.2624 34.9176 70.1323 35.3409C70.0975 35.436 70.0804 35.5652 70.0804 35.6949V38.2078H69.3179V35.159Z" fill="#08090D"/>
<path d="M77.7406 34.0274C77.7235 34.3298 77.7059 34.6663 77.7059 35.1759V37.6024C77.7059 38.5612 77.515 39.1483 77.1079 39.5111C76.7007 39.891 76.1115 40.0119 75.5825 40.0119C75.08 40.0119 74.5255 39.891 74.1874 39.6667L74.3782 39.0878C74.6557 39.2605 75.0888 39.416 75.609 39.416C76.389 39.416 76.9611 39.0103 76.9611 37.9565V37.4903H76.9439C76.71 37.8789 76.2593 38.1896 75.6094 38.1896C74.5695 38.1896 73.8242 37.3089 73.8242 36.1517C73.8242 34.7355 74.7516 33.9324 75.7136 33.9324C76.4418 33.9324 76.8402 34.3122 77.0222 34.6575H77.0393L77.0741 34.027H77.7406V34.0274ZM76.9523 35.6767C76.9523 35.547 76.9434 35.4348 76.9087 35.3314C76.7702 34.8911 76.3973 34.5283 75.8429 34.5283C75.1147 34.5283 74.595 35.1413 74.595 36.1087C74.595 36.929 75.011 37.6112 75.8341 37.6112C76.3019 37.6112 76.7267 37.3176 76.8916 36.8339C76.9351 36.7042 76.9523 36.5574 76.9523 36.4282V35.6767Z" fill="#08090D"/>
<path d="M81.7365 38.2074V35.7374L79.8906 32.3867H80.7485L81.5716 33.9931C81.7967 34.4334 81.9704 34.7875 82.152 35.1932H82.1696C82.334 34.8133 82.5337 34.4334 82.7588 33.9931L83.5995 32.3867H84.4574L82.4989 35.7286V38.2069H81.7365V38.2074Z" fill="#08090D"/>
<path d="M88.2356 36.0831C88.2356 37.629 87.161 38.3024 86.147 38.3024C85.0117 38.3024 84.1367 37.4734 84.1367 36.1523C84.1367 34.7533 85.0553 33.933 86.2165 33.933C87.4209 33.9326 88.2356 34.805 88.2356 36.0831ZM84.908 36.126C84.908 37.0414 85.4365 37.7324 86.1818 37.7324C86.9099 37.7324 87.4556 37.0501 87.4556 36.109C87.4556 35.4009 87.1003 34.5026 86.1989 34.5026C85.298 34.5026 84.908 35.3316 84.908 36.126Z" fill="#08090D"/>
<path d="M92.7071 37.0674C92.7071 37.499 92.7159 37.8793 92.7418 38.2075H92.066L92.0224 37.5253H92.0053C91.8061 37.8622 91.3642 38.3026 90.6189 38.3026C89.9603 38.3026 89.1719 37.9398 89.1719 36.4719V34.0278H89.9343V36.3422C89.9343 37.1366 90.177 37.6721 90.8705 37.6721C91.3818 37.6721 91.7371 37.318 91.8756 36.9811C91.9192 36.8689 91.9451 36.7304 91.9451 36.5924V34.0274H92.7075V37.0674H92.7071Z" fill="#08090D"/>
<path d="M93.9722 35.3314C93.9722 34.8394 93.9634 34.4161 93.9375 34.0274H94.605L94.6309 34.8477H94.6657C94.8565 34.2864 95.3155 33.9324 95.8269 33.9324C95.9135 33.9324 95.9742 33.9411 96.0437 33.9582V34.675C95.9659 34.6575 95.8876 34.6492 95.7838 34.6492C95.2465 34.6492 94.8653 35.0549 94.7611 35.625C94.7439 35.7289 94.7263 35.8493 94.7263 35.979V38.2071H93.9722V35.3314Z" fill="#08090D"/>
<path d="M98.6689 32.4642C98.9983 32.395 99.518 32.3433 100.047 32.3433C100.801 32.3433 101.286 32.473 101.65 32.7665C101.954 32.9909 102.136 33.3366 102.136 33.794C102.136 34.3553 101.763 34.8474 101.148 35.0722V35.0893C101.702 35.2273 102.352 35.6852 102.352 36.5488C102.352 37.0496 102.153 37.4295 101.859 37.7148C101.451 38.0859 100.793 38.259 99.8395 38.259C99.3193 38.259 98.9209 38.2244 98.6694 38.1897V32.4642H98.6689ZM99.4226 34.8474H100.107C100.904 34.8474 101.372 34.4329 101.372 33.8716C101.372 33.1894 100.853 32.9216 100.09 32.9216C99.7431 32.9216 99.5435 32.9475 99.4221 32.9733V34.8474H99.4226ZM99.4226 37.6368C99.5699 37.6626 99.7867 37.6714 100.055 37.6714C100.835 37.6714 101.555 37.3866 101.555 36.54C101.555 35.7456 100.87 35.4174 100.047 35.4174H99.423V37.6368H99.4226Z" fill="#08090D"/>
<path d="M106.85 37.0674C106.85 37.499 106.858 37.8793 106.884 38.2075H106.209L106.165 37.5253H106.148C105.949 37.8622 105.507 38.3026 104.762 38.3026C104.103 38.3026 103.314 37.9398 103.314 36.4719V34.0278H104.077V36.3422C104.077 37.1366 104.32 37.6721 105.013 37.6721C105.524 37.6721 105.88 37.318 106.018 36.9811C106.062 36.8689 106.088 36.7304 106.088 36.5924V34.0274H106.85V37.0674H106.85Z" fill="#08090D"/>
<path d="M108.01 37.4298C108.235 37.5766 108.634 37.7322 109.015 37.7322C109.57 37.7322 109.83 37.4557 109.83 37.1104C109.83 36.7476 109.613 36.5491 109.05 36.3418C108.296 36.0741 107.941 35.6596 107.941 35.1588C107.941 34.4853 108.487 33.9324 109.388 33.9324C109.813 33.9324 110.185 34.0533 110.419 34.1913L110.228 34.7438C110.064 34.64 109.76 34.502 109.37 34.502C108.919 34.502 108.668 34.7609 108.668 35.072C108.668 35.4173 108.92 35.5728 109.466 35.7801C110.194 36.0566 110.566 36.4189 110.566 37.0407C110.566 37.7746 109.994 38.293 108.998 38.293C108.538 38.293 108.114 38.1808 107.819 38.0082L108.01 37.4298Z" fill="#08090D"/>
<path d="M112.396 32.8535C112.405 33.1125 112.214 33.3197 111.911 33.3197C111.642 33.3197 111.451 33.1125 111.451 32.8535C111.451 32.5858 111.65 32.3785 111.928 32.3785C112.214 32.3785 112.396 32.5858 112.396 32.8535ZM111.547 38.2075V34.0278H112.309V38.2075H111.547Z" fill="#08090D"/>
<path d="M113.574 35.159C113.574 34.7274 113.565 34.3729 113.539 34.0276H114.215L114.258 34.7186H114.276C114.484 34.3212 114.969 33.933 115.662 33.933C116.242 33.933 117.144 34.2783 117.144 35.712V38.2078H116.381V35.7983C116.381 35.1248 116.13 34.5636 115.411 34.5636C114.908 34.5636 114.518 34.9176 114.388 35.3409C114.353 35.436 114.336 35.5652 114.336 35.6949V38.2078H113.574V35.159Z" fill="#08090D"/>
<path d="M118.809 36.2555C118.826 37.283 119.485 37.7063 120.247 37.7063C120.794 37.7063 121.123 37.6112 121.409 37.4903L121.539 38.0345C121.27 38.1554 120.811 38.2934 120.144 38.2934C118.852 38.2934 118.081 37.4474 118.081 36.1863C118.081 34.9252 118.826 33.9324 120.048 33.9324C121.418 33.9324 121.782 35.1325 121.782 35.9015C121.782 36.057 121.764 36.178 121.756 36.2555H118.809ZM121.045 35.7113C121.053 35.2276 120.845 34.4766 119.987 34.4766C119.216 34.4766 118.878 35.1846 118.817 35.7113H121.045Z" fill="#08090D"/>
<path d="M122.621 37.4298C122.847 37.5766 123.245 37.7322 123.627 37.7322C124.181 37.7322 124.441 37.4557 124.441 37.1104C124.441 36.7476 124.225 36.5491 123.661 36.3418C122.907 36.0741 122.552 35.6596 122.552 35.1588C122.552 34.4853 123.098 33.9324 123.999 33.9324C124.424 33.9324 124.796 34.0533 125.03 34.1913L124.839 34.7438C124.675 34.64 124.371 34.502 123.981 34.502C123.531 34.502 123.28 34.7609 123.28 35.072C123.28 35.4173 123.531 35.5728 124.077 35.7801C124.805 36.0566 125.177 36.4189 125.177 37.0407C125.177 37.7746 124.605 38.293 123.609 38.293C123.15 38.293 122.725 38.1808 122.431 38.0082L122.621 37.4298Z" fill="#08090D"/>
<path d="M126.053 37.4298C126.278 37.5766 126.677 37.7322 127.058 37.7322C127.613 37.7322 127.873 37.4557 127.873 37.1104C127.873 36.7476 127.656 36.5491 127.093 36.3418C126.339 36.0741 125.984 35.6596 125.984 35.1588C125.984 34.4853 126.53 33.9324 127.431 33.9324C127.855 33.9324 128.228 34.0533 128.462 34.1913L128.271 34.7438C128.107 34.64 127.803 34.502 127.413 34.502C126.962 34.502 126.711 34.7609 126.711 35.072C126.711 35.4173 126.963 35.5728 127.509 35.7801C128.237 36.0566 128.609 36.4189 128.609 37.0407C128.609 37.7746 128.037 38.293 127.041 38.293C126.581 38.293 126.157 38.1808 125.862 38.0082L126.053 37.4298Z" fill="#08090D"/>
<path d="M130.178 36.5576L130.161 36.3333C130.109 35.8671 130.265 35.3575 130.698 34.8391C131.088 34.3812 131.305 34.0447 131.305 33.656C131.305 33.2157 131.028 32.9221 130.482 32.9133C130.17 32.9133 129.823 33.0172 129.606 33.1811L129.398 32.6368C129.684 32.4296 130.178 32.2916 130.638 32.2916C131.634 32.2916 132.085 32.9046 132.085 33.561C132.085 34.1481 131.755 34.5714 131.339 35.0634C130.958 35.5125 130.819 35.8924 130.845 36.3328L130.854 36.5571H130.178V36.5576ZM129.988 37.7665C129.988 37.4471 130.204 37.2223 130.507 37.2223C130.811 37.2223 131.019 37.4466 131.019 37.7665C131.019 38.0688 130.82 38.3019 130.499 38.3019C130.196 38.3019 129.988 38.0688 129.988 37.7665Z" fill="#08090D"/>
</svg>
