<svg width="60" height="60" viewBox="0 0 60 60" fill="none" xmlns="http://www.w3.org/2000/svg">
<rect width="60" height="60" rx="8" fill="#EBFF3A"/>
<path d="M30 18V42" stroke="#08090D" stroke-width="1.5" stroke-linecap="round" stroke-linejoin="round"/>
<path d="M37.0625 25.5C37.0625 24.9091 36.9413 24.3239 36.7057 23.7779C36.4701 23.232 36.1248 22.7359 35.6896 22.318C35.2543 21.9002 34.7375 21.5687 34.1688 21.3425C33.6001 21.1164 32.9906 21 32.375 21H28.1562C26.913 21 25.7208 21.4741 24.8417 22.318C23.9626 23.1619 23.4688 24.3065 23.4688 25.5C23.4688 26.6935 23.9626 27.8381 24.8417 28.682C25.7208 29.5259 26.913 30 28.1562 30H33.3125C34.5557 30 35.748 30.4741 36.6271 31.318C37.5061 32.1619 38 33.3065 38 34.5C38 35.6935 37.5061 36.8381 36.6271 37.682C35.748 38.5259 34.5557 39 33.3125 39H27.6875C26.4443 39 25.252 38.5259 24.3729 37.682C23.4939 36.8381 23 35.6935 23 34.5" stroke="#08090D" stroke-width="1.5" stroke-linecap="round" stroke-linejoin="round"/>
</svg>
