<svg width="60" height="60" viewBox="0 0 60 60" fill="none" xmlns="http://www.w3.org/2000/svg">
<rect width="60" height="60" rx="8" fill="#EBFF3A"/>
<path d="M22 28C25.3137 28 28 25.3137 28 22C28 18.6863 25.3137 16 22 16C18.6863 16 16 18.6863 16 22C16 25.3137 18.6863 28 22 28Z" stroke="#08090D" stroke-width="1.5" stroke-linecap="round" stroke-linejoin="round"/>
<path d="M38.5 28C41.5376 28 44 25.3137 44 22C44 18.6863 41.5376 16 38.5 16C35.4624 16 33 18.6863 33 22C33 25.3137 35.4624 28 38.5 28Z" stroke="#08090D" stroke-width="1.5" stroke-linecap="round" stroke-linejoin="round"/>
<path d="M22 44C25.3137 44 28 41.5376 28 38.5C28 35.4624 25.3137 33 22 33C18.6863 33 16 35.4624 16 38.5C16 41.5376 18.6863 44 22 44Z" stroke="#08090D" stroke-width="1.5" stroke-linecap="round" stroke-linejoin="round"/>
<path d="M38.5 44C41.5376 44 44 41.5376 44 38.5C44 35.4624 41.5376 33 38.5 33C35.4624 33 33 35.4624 33 38.5C33 41.5376 35.4624 44 38.5 44Z" stroke="#08090D" stroke-width="1.5" stroke-linecap="round" stroke-linejoin="round"/>
</svg>
