<svg width="60" height="60" viewBox="0 0 60 60" fill="none" xmlns="http://www.w3.org/2000/svg">
<rect width="60" height="60" rx="8" fill="#EBFF3A"/>
<g clip-path="url(#clip0_216_8800)">
<path d="M38.3818 27.9931C41.5693 24.8056 41.7685 21.0138 41.6689 19.3231C41.6523 19.0655 41.5425 18.8226 41.3599 18.64C41.1773 18.4575 40.9345 18.3476 40.6768 18.331C38.9861 18.2314 35.197 18.428 32.0068 21.6181L23.625 29.9999L30 36.3749L38.3818 27.9931Z" stroke="#08090D" stroke-width="1.5" stroke-linecap="round" stroke-linejoin="round"/>
<path d="M31.0627 22.5625H22.8748C22.5934 22.5626 22.3235 22.6744 22.1244 22.8733L17.5623 27.4354C17.423 27.575 17.3253 27.7506 17.2802 27.9426C17.235 28.1345 17.2442 28.3353 17.3066 28.5223C17.3691 28.7094 17.4823 28.8753 17.6338 29.0017C17.7852 29.128 17.9688 29.2097 18.164 29.2377L23.6252 30" stroke="#08090D" stroke-width="1.5" stroke-linecap="round" stroke-linejoin="round"/>
<path d="M37.4375 28.9375V37.1254C37.4374 37.4068 37.3256 37.6767 37.1267 37.8758L32.5646 42.4379C32.425 42.5772 32.2494 42.6749 32.0574 42.72C31.8655 42.7652 31.6647 42.756 31.4777 42.6936C31.2906 42.6312 31.1247 42.5179 30.9983 42.3665C30.872 42.2151 30.7903 42.0315 30.7623 41.8363L30 36.375" stroke="#08090D" stroke-width="1.5" stroke-linecap="round" stroke-linejoin="round"/>
<path d="M25.5587 37.9449C25.0448 39.0725 23.3129 41.6875 18.3125 41.6875C18.3125 36.6871 20.9276 34.9553 22.0552 34.4413" stroke="#08090D" stroke-width="1.5" stroke-linecap="round" stroke-linejoin="round"/>
</g>
<defs>
<clipPath id="clip0_216_8800">
<rect width="34" height="34" fill="white" transform="translate(13 13)"/>
</clipPath>
</defs>
</svg>
