<svg width="60" height="60" viewBox="0 0 60 60" fill="none" xmlns="http://www.w3.org/2000/svg">
<rect width="60" height="60" rx="8" fill="#EBFF3A"/>
<path d="M30 19C27.8244 19 25.6977 19.6451 23.8887 20.8538C22.0798 22.0625 20.6699 23.7805 19.8373 25.7905C19.0048 27.8005 18.7869 30.0122 19.2114 32.146C19.6358 34.2798 20.6835 36.2398 22.2218 37.7782C23.7602 39.3165 25.7202 40.3642 27.854 40.7886C29.9878 41.2131 32.1995 40.9952 34.2095 40.1627C36.2195 39.3301 37.9375 37.9202 39.1462 36.1113C40.3549 34.3023 41 32.1756 41 30C40.9966 27.0837 39.8365 24.2878 37.7744 22.2256C35.7122 20.1635 32.9163 19.0034 30 19ZM30 39.7059C28.0804 39.7059 26.2038 39.1366 24.6077 38.0701C23.0116 37.0036 21.7676 35.4878 21.0329 33.7143C20.2983 31.9408 20.1061 29.9892 20.4806 28.1065C20.8551 26.2237 21.7795 24.4943 23.1369 23.1369C24.4943 21.7795 26.2237 20.8551 28.1065 20.4806C29.9892 20.1061 31.9408 20.2983 33.7143 21.0329C35.4878 21.7675 37.0037 23.0116 38.0701 24.6077C39.1366 26.2038 39.7059 28.0804 39.7059 30C39.703 32.5733 38.6795 35.0404 36.8599 36.8599C35.0404 38.6795 32.5733 39.703 30 39.7059Z" fill="black"/>
</svg>
