<svg width="40" height="40" viewBox="0 0 40 40" fill="none" xmlns="http://www.w3.org/2000/svg">
<g clip-path="url(#clip0_174_4743)">
<path d="M20 35C28.2843 35 35 28.2843 35 20C35 11.7157 28.2843 5 20 5C11.7157 5 5 11.7157 5 20C5 28.2843 11.7157 35 20 35Z" stroke="#08090D" stroke-width="1.5" stroke-linecap="round" stroke-linejoin="round"/>
<path d="M28.816 32.1375L27.3535 30.6735C27.1968 30.5162 27.001 30.4034 26.7863 30.3469L23.4379 29.4672C23.1405 29.389 22.8824 29.2039 22.7129 28.9474C22.5434 28.6908 22.4744 28.3808 22.5191 28.0766L22.891 25.5453C22.9226 25.3317 23.009 25.1298 23.1418 24.9595C23.2746 24.7892 23.4493 24.6562 23.6488 24.5735L28.4066 22.5953C28.6265 22.5041 28.8679 22.4775 29.1023 22.5188C29.3368 22.56 29.5546 22.6674 29.7301 22.8281L33.5941 26.361" stroke="#08090D" stroke-width="1.5" stroke-linecap="round" stroke-linejoin="round"/>
<path d="M7.88867 28.8516L9.43867 27.8328C9.61033 27.7194 9.75135 27.5654 9.8492 27.3844C9.94705 27.2034 9.99871 27.0011 9.99961 26.7953L10.0324 21.1344C10.0341 20.889 10.1074 20.6496 10.2434 20.4453L13.5152 15.5547C13.6091 15.4154 13.73 15.2965 13.8708 15.205C14.0116 15.1135 14.1694 15.0513 14.3348 15.0221C14.5002 14.9929 14.6697 14.9974 14.8334 15.0352C14.997 15.073 15.1513 15.1434 15.2871 15.2422L18.3824 17.2734C18.6431 17.4612 18.9656 17.5422 19.284 17.5L24.1996 16.8344C24.5031 16.7937 24.7811 16.643 24.9809 16.4109L28.4465 12.375C28.6412 12.149 28.7488 11.8608 28.7496 11.5625V7.8125" stroke="#08090D" stroke-width="1.5" stroke-linecap="round" stroke-linejoin="round"/>
</g>
<defs>
<clipPath id="clip0_174_4743">
<rect width="40" height="40" fill="white"/>
</clipPath>
</defs>
</svg>
