<svg width="40" height="40" viewBox="0 0 40 40" fill="none" xmlns="http://www.w3.org/2000/svg">
<g clip-path="url(#clip0_174_4751)">
<path d="M21.25 21.25C21.5815 21.25 21.8995 21.3817 22.1339 21.6161C22.3683 21.8505 22.5 22.1685 22.5 22.5C22.5 23.163 22.2366 23.7989 21.7678 24.2678C21.2989 24.7366 20.663 25 20 25C19.0054 25 18.0516 24.6049 17.3483 23.9017C16.6451 23.1984 16.25 22.2446 16.25 21.25C16.25 19.9239 16.7768 18.6521 17.7145 17.7145C18.6521 16.7768 19.9239 16.25 21.25 16.25C22.9076 16.25 24.4973 16.9085 25.6694 18.0806C26.8415 19.2527 27.5 20.8424 27.5 22.5C27.5 24.4891 26.7098 26.3968 25.3033 27.8033C23.8968 29.2098 21.9891 30 20 30C17.6794 30 15.4538 29.0781 13.8128 27.4372C12.1719 25.7962 11.25 23.5706 11.25 21.25C11.25 18.5978 12.3036 16.0543 14.1789 14.1789C16.0543 12.3036 18.5978 11.25 21.25 11.25C24.2337 11.25 27.0952 12.4353 29.205 14.545C31.3147 16.6548 32.5 19.5163 32.5 22.5C32.5 24.1415 32.1767 25.767 31.5485 27.2835C30.9203 28.8001 29.9996 30.1781 28.8388 31.3388C27.6781 32.4996 26.3001 33.4203 24.7835 34.0485C23.267 34.6767 21.6415 35 20 35C16.3533 35 12.8559 33.5513 10.2773 30.9727C7.69866 28.3941 6.25 24.8967 6.25 21.25C6.25 17.2718 7.83035 13.4564 10.6434 10.6434C13.4564 7.83035 17.2718 6.25 21.25 6.25C23.384 6.25 25.4971 6.67032 27.4686 7.48696C29.4401 8.3036 31.2315 9.50056 32.7405 11.0095C34.2494 12.5185 35.4464 14.3099 36.263 16.2814C37.0797 18.2529 37.5 20.366 37.5 22.5" stroke="#08090D" stroke-width="1.5" stroke-linecap="round" stroke-linejoin="round"/>
</g>
<defs>
<clipPath id="clip0_174_4751">
<rect width="40" height="40" fill="white"/>
</clipPath>
</defs>
</svg>
