<svg width="34" height="34" viewBox="0 0 34 34" fill="none" xmlns="http://www.w3.org/2000/svg">
<g clip-path="url(#clip0_227_13000)">
<path d="M18.0625 11.6875C19.8229 11.6875 21.25 10.2604 21.25 8.5C21.25 6.73959 19.8229 5.3125 18.0625 5.3125C16.3021 5.3125 14.875 6.73959 14.875 8.5C14.875 10.2604 16.3021 11.6875 18.0625 11.6875Z" stroke="#08090D" stroke-width="1.5" stroke-linecap="round" stroke-linejoin="round"/>
<path d="M1.0625 17H26.5625" stroke="#08090D" stroke-width="1.5" stroke-linecap="round" stroke-linejoin="round"/>
<path d="M26.5625 12.75V21.25L32.9375 17L26.5625 12.75Z" stroke="#08090D" stroke-width="1.5" stroke-linecap="round" stroke-linejoin="round"/>
<path d="M20.1875 22.3125H15.9375C15.3507 22.3125 14.875 22.7882 14.875 23.375V27.625C14.875 28.2118 15.3507 28.6875 15.9375 28.6875H20.1875C20.7743 28.6875 21.25 28.2118 21.25 27.625V23.375C21.25 22.7882 20.7743 22.3125 20.1875 22.3125Z" stroke="#08090D" stroke-width="1.5" stroke-linecap="round" stroke-linejoin="round"/>
<path d="M14.875 8.5H9.5625C9.28071 8.5 9.01046 8.61194 8.8112 8.8112C8.61194 9.01046 8.5 9.28071 8.5 9.5625V24.4375C8.5 24.7193 8.61194 24.9895 8.8112 25.1888C9.01046 25.3881 9.28071 25.5 9.5625 25.5H14.875" stroke="#08090D" stroke-width="1.5" stroke-linecap="round" stroke-linejoin="round"/>
</g>
<defs>
<clipPath id="clip0_227_13000">
<rect width="34" height="34" fill="white"/>
</clipPath>
</defs>
</svg>
