<svg width="40" height="40" viewBox="0 0 40 40" fill="none" xmlns="http://www.w3.org/2000/svg">
<g clip-path="url(#clip0_227_12912)">
<path d="M8.75 33.75V8.75C8.75 8.08696 9.01339 7.45107 9.48223 6.98223C9.95107 6.51339 10.587 6.25 11.25 6.25H23.75C24.413 6.25 25.0489 6.51339 25.5178 6.98223C25.9866 7.45107 26.25 8.08696 26.25 8.75V33.75" stroke="#08090D" stroke-width="1.5" stroke-linecap="round" stroke-linejoin="round"/>
<path d="M5 33.75H30" stroke="#08090D" stroke-width="1.5" stroke-linecap="round" stroke-linejoin="round"/>
<path d="M26.25 17.5H30C30.663 17.5 31.2989 17.7634 31.7678 18.2322C32.2366 18.7011 32.5 19.337 32.5 20V26.25C32.5 26.913 32.7634 27.5489 33.2322 28.0178C33.7011 28.4866 34.337 28.75 35 28.75C35.663 28.75 36.2989 28.4866 36.7678 28.0178C37.2366 27.5489 37.5 26.913 37.5 26.25V13.5359C37.5001 13.2074 37.4354 12.8821 37.3096 12.5786C37.1839 12.2751 36.9996 11.9994 36.7672 11.7672L33.75 8.75" stroke="#08090D" stroke-width="1.5" stroke-linecap="round" stroke-linejoin="round"/>
<path d="M21.25 17.5H13.75" stroke="#08090D" stroke-width="1.5" stroke-linecap="round" stroke-linejoin="round"/>
</g>
<defs>
<clipPath id="clip0_227_12912">
<rect width="40" height="40" fill="white"/>
</clipPath>
</defs>
</svg>
