<svg width="133" height="42" viewBox="0 0 133 42" fill="none" xmlns="http://www.w3.org/2000/svg">
<path d="M91.5453 17.5252C91.5565 17.4019 91.5671 17.3368 91.5671 17.2713C91.5662 13.471 91.5643 9.67075 91.5625 5.87003C91.5625 5.3572 91.5629 5.35674 92.0734 5.35674C93.9494 5.35674 95.8254 5.36043 97.7014 5.35213C97.9251 5.3512 98.0048 5.39459 98.0048 5.6397C97.9978 12.8253 97.9978 20.0104 98.0034 27.1959C98.0034 27.4207 97.9557 27.501 97.7115 27.4996C95.7355 27.489 93.759 27.4913 91.7825 27.4955C91.6278 27.4959 91.5305 27.4539 91.4411 27.3219C90.3646 25.7308 89.2803 24.1448 88.2015 22.5551C86.6279 20.2356 85.0572 17.9143 83.4851 15.5939C83.4439 15.5329 83.3948 15.4766 83.2887 15.4295C83.2887 19.4431 83.2887 23.4566 83.2887 27.4946C83.1219 27.4946 83.0006 27.4946 82.8787 27.4946C80.9796 27.4946 79.0805 27.4913 77.1813 27.4992C76.9655 27.5001 76.89 27.4512 76.8904 27.2208C76.8964 20.02 76.896 12.8193 76.8913 5.61846C76.8913 5.42275 76.9326 5.35166 77.1452 5.35259C79.1059 5.3609 81.0671 5.36043 83.0279 5.3549C83.1877 5.35443 83.2762 5.4089 83.3628 5.53676C84.6806 7.48374 86.0031 9.4275 87.3246 11.3722C87.8202 12.1019 88.3159 12.8317 88.8106 13.562C89.6745 14.8373 90.5374 16.1132 91.4022 17.3881C91.4268 17.4236 91.4657 17.4495 91.5453 17.5252Z" fill="white"/>
<path d="M118.928 23.3637C118.592 23.8401 118.307 24.2749 117.991 24.6867C117.232 25.6768 116.309 26.4744 115.157 26.9835C114.292 27.3657 113.383 27.5965 112.442 27.681C111.583 27.7585 110.721 27.8412 109.859 27.8435C108.578 27.8472 107.3 27.7456 106.061 27.386C104.631 26.9711 103.463 26.167 102.528 25.0098C101.544 23.7921 100.952 22.4069 100.77 20.8652C100.561 19.1 100.686 17.3603 101.46 15.7244C102.331 13.8822 103.727 12.5792 105.628 11.8249C106.614 11.4335 107.642 11.2318 108.703 11.1616C110.056 11.0721 111.4 11.1201 112.733 11.3601C115.379 11.8365 117.364 13.1996 118.462 15.7018C118.878 16.6495 119.099 17.653 119.172 18.6846C119.226 19.4504 119.255 20.2176 119.297 21.0166C115.157 21.0166 111.064 21.0166 106.906 21.0166C106.983 21.3812 107.039 21.7089 107.123 22.0293C107.379 22.9977 107.97 23.7081 108.904 24.0621C109.747 24.3815 110.61 24.3225 111.451 23.973C111.981 23.7533 112.381 23.3822 112.734 22.952C112.831 22.8338 112.924 22.7932 113.066 22.8071C113.887 22.886 114.708 22.9617 115.53 23.0388C116.335 23.1145 117.141 23.1897 117.947 23.2663C118.245 23.2945 118.543 23.3254 118.928 23.3637ZM109.983 18.0956C109.983 18.0952 109.983 18.0947 109.983 18.0947C110.908 18.0947 111.833 18.0915 112.758 18.0975C112.942 18.0989 113.038 18.067 112.988 17.8538C112.939 17.6451 112.926 17.4282 112.88 17.2191C112.696 16.3887 112.373 15.6404 111.606 15.1678C111.062 14.8331 110.466 14.7316 109.837 14.756C109.113 14.7842 108.494 15.0441 107.974 15.5472C107.343 16.1574 107.099 16.9375 106.983 17.7734C106.938 18.0961 106.941 18.0956 107.277 18.0956C108.179 18.0956 109.081 18.0956 109.983 18.0956Z" fill="white"/>
<path d="M25.9637 27.4567C25.9595 27.3741 25.9535 27.3072 25.9535 27.2398C25.9535 22.1014 25.9535 16.9629 25.9539 11.825C25.9539 11.4885 25.9544 11.4899 26.2999 11.4894C27.9749 11.4894 29.6498 11.4885 31.3248 11.4876C31.6092 11.4876 31.6231 11.4982 31.6231 11.7862C31.6231 12.4477 31.6203 13.1091 31.6217 13.7706C31.6217 13.8491 31.6412 13.9271 31.6602 14.0688C31.8987 13.8107 32.0974 13.604 32.2873 13.3889C32.7589 12.8553 33.3008 12.4057 33.9007 12.0221C34.6284 11.5568 35.4353 11.2928 36.2816 11.2051C37.8718 11.0403 39.4277 11.1238 40.7867 12.1227C41.4218 12.5894 41.8753 13.1931 42.1981 13.91C42.7095 15.0464 42.8137 16.2502 42.817 17.4684C42.8258 20.699 42.8197 23.9297 42.8193 27.1604C42.8193 27.4655 42.8188 27.4683 42.5284 27.4683C40.7687 27.4678 39.0085 27.4655 37.2487 27.4636C37.1107 27.4636 36.9718 27.471 36.836 27.4526C36.7869 27.4461 36.729 27.3829 36.7073 27.3316C36.685 27.2795 36.7008 27.2107 36.7008 27.1493C36.7008 24.365 36.704 21.5802 36.6966 18.7959C36.6957 18.3833 36.6753 17.9651 36.6081 17.5589C36.3918 16.2544 35.4223 15.796 34.249 15.9142C33.5676 15.983 33.0489 16.3199 32.6537 16.8582C32.3596 17.2588 32.2276 17.7301 32.1771 18.2111C32.1081 18.8744 32.0576 19.5428 32.053 20.2098C32.0381 22.502 32.0469 24.7943 32.0465 27.0865C32.0465 27.4696 32.0451 27.465 31.6717 27.465C29.8578 27.4655 28.0444 27.4687 26.2305 27.4706C26.1471 27.4706 26.0637 27.4618 25.9637 27.4567Z" fill="white"/>
<path d="M18.2165 12.0396C18.2165 12.1116 18.2253 12.18 18.2151 12.2455C18.0669 13.1867 17.9154 14.1274 17.7663 15.0681C17.5088 16.6906 17.2503 18.3131 16.9951 19.936C16.7736 21.3467 16.5541 22.7582 16.3392 24.1697C16.2507 24.7513 16.4698 24.9974 17.053 24.9881C17.6037 24.9789 18.0688 24.7287 18.4931 24.4204C20.2426 23.1478 21.1111 21.373 21.4154 19.2783C21.5701 18.2129 21.5618 17.1462 21.4423 16.0841C21.3802 15.5311 21.2385 14.9818 21.0833 14.445C20.6581 12.9743 19.8415 11.7511 18.6529 10.78C17.8751 10.1439 16.9992 9.69153 16.0358 9.39934C14.7244 9.00145 13.3788 8.92898 12.0304 9.04299C10.3462 9.18563 8.78519 9.72845 7.37889 10.6798C5.68356 11.8264 4.57047 13.4152 3.85713 15.3035C3.4472 16.3878 3.1841 17.5076 3.0896 18.6634C2.91358 20.8218 3.09099 22.9405 3.94839 24.9517C4.22353 25.5965 4.59132 26.2169 5.00357 26.786C6.09442 28.2913 7.52666 29.3788 9.29379 29.9899C10.8298 30.5212 12.4144 30.6661 14.0342 30.5101C15.2011 30.3975 16.3285 30.1261 17.4087 29.6936C18.5255 29.2468 19.5677 28.6504 20.5242 27.9132C20.6034 27.8523 20.7146 27.8001 20.8114 27.7992C21.7068 27.7904 22.6022 27.7941 23.498 27.7951C23.5337 27.7951 23.5689 27.8057 23.6587 27.82C23.3521 28.1533 23.0788 28.4597 22.7953 28.7565C21.7086 29.8944 20.4237 30.752 19.0012 31.4144C17.8728 31.9401 16.7 32.3417 15.473 32.5467C14.2237 32.7553 12.9652 32.8153 11.6946 32.6907C10.6292 32.5859 9.59256 32.3837 8.58832 32.0218C7.38491 31.5879 6.27692 30.9805 5.28798 30.1672C3.5227 28.7159 2.34708 26.8663 1.59483 24.7296C0.931059 22.8436 0.738366 20.8961 0.856946 18.9164C0.956536 17.2482 1.32386 15.6313 1.99412 14.0951C2.86911 12.0904 4.10773 10.3502 5.87579 9.02592C7.13895 8.08012 8.54849 7.4422 10.0993 7.11032C11.607 6.78721 13.1259 6.73643 14.6517 6.89522C16.0288 7.03831 17.3392 7.43066 18.5449 8.11658C20.471 9.21194 21.899 10.7656 22.8004 12.7929C23.1937 13.6778 23.4313 14.6015 23.5814 15.5569C23.7384 16.5577 23.7769 17.5575 23.6972 18.5647C23.6055 19.7274 23.3581 20.8509 22.925 21.9403C22.4174 23.2179 21.7008 24.3475 20.6965 25.2905C19.9512 25.9902 19.1258 26.5815 18.1781 26.9753C17.386 27.3044 16.5666 27.5273 15.6897 27.4959C14.5289 27.4544 13.6683 26.7029 13.4849 25.5545C13.364 24.7957 13.4849 24.0539 13.6025 23.3093C13.7545 22.3465 13.8994 21.3827 14.0505 20.4198C14.2529 19.1315 14.4595 17.8441 14.6633 16.5558C14.8912 15.1143 15.1195 13.6727 15.3433 12.2307C15.3632 12.1019 15.3877 12.0124 15.5466 12.0129C16.4035 12.0166 17.2605 12.0147 18.1174 12.0166C18.1466 12.0156 18.1753 12.0295 18.2165 12.0396Z" fill="white"/>
<path d="M65.0019 27.8555C63.9083 27.8172 62.8332 27.7111 61.7817 27.4069C60.5435 27.0487 59.4397 26.4694 58.4776 25.5942C57.4938 24.6992 56.7633 23.6509 56.3219 22.4069C55.899 21.2151 55.7966 19.9776 55.8906 18.7235C55.9726 17.6323 56.2334 16.5845 56.7462 15.611C57.5739 14.0397 58.7824 12.8562 60.3907 12.0793C61.337 11.6224 62.3343 11.3634 63.3756 11.2411C64.8884 11.0634 66.3855 11.1197 67.8766 11.4474C69.6326 11.8333 71.1292 12.6508 72.3016 14.0213C73.1001 14.955 73.6333 16.0232 73.927 17.2178C74.2521 18.5397 74.2651 19.8714 74.0289 21.1976C73.7343 22.8528 72.9769 24.2778 71.7494 25.4516C70.3899 26.7519 68.7502 27.435 66.9075 27.6774C66.2757 27.7609 65.6374 27.7974 65.0019 27.8555ZM62.2069 21.4981C62.4038 22.2934 62.8623 22.9572 63.5951 23.3518C65.3359 24.2888 67.3749 23.44 67.8724 21.4122C68.116 20.4193 68.1387 19.4145 68.028 18.4114C67.946 17.6687 67.7191 16.962 67.229 16.3583C65.9922 14.8332 63.5437 15.0271 62.5376 16.8C62.0596 17.6429 62.0476 20.8542 62.2069 21.4981Z" fill="white"/>
<path d="M46.4758 15.9465C45.7815 15.9465 45.1256 15.9377 44.4701 15.9516C44.251 15.9562 44.1978 15.8847 44.1992 15.6751C44.208 14.3753 44.2098 13.0754 44.1978 11.7756C44.1955 11.5416 44.2835 11.4866 44.4901 11.489C45.0533 11.4954 45.617 11.488 46.1803 11.4917C46.5031 11.494 46.4855 11.4982 46.5073 11.1645C46.5629 10.3147 46.5976 9.46073 46.713 8.61787C46.8186 7.84286 47.0914 7.1117 47.6338 6.51487C48.2077 5.88295 48.9239 5.47814 49.7474 5.27181C50.9434 4.97224 52.1603 4.98424 53.3794 5.07563C54.2155 5.13841 55.0512 5.20673 55.8863 5.27781C56.1392 5.29951 56.3903 5.34243 56.6427 5.36782C56.81 5.3849 56.7877 5.48783 56.7673 5.60046C56.6659 6.15991 56.5663 6.71935 56.4663 7.2788C56.3727 7.79993 56.2736 8.32015 56.1893 8.84266C56.1624 9.01022 56.0846 9.02591 55.935 9.01391C55.2911 8.96083 54.6463 8.89344 54.0011 8.88513C53.2678 8.8759 52.6786 9.48335 52.6443 10.2191C52.6286 10.557 52.6226 10.8954 52.5929 11.2318C52.5744 11.4433 52.6592 11.4963 52.8546 11.4945C53.6416 11.4866 54.4291 11.4894 55.2165 11.4894C55.5264 11.4894 55.5338 11.4959 55.5338 11.7941C55.5347 13.0861 55.531 14.3785 55.5375 15.6705C55.5385 15.8741 55.488 15.9544 55.2647 15.9507C54.4777 15.9378 53.6903 15.9456 52.9028 15.9456C52.5934 15.9456 52.5934 15.9461 52.5939 16.2456C52.5948 19.8299 52.5962 23.4141 52.5966 26.9984C52.5966 27.5066 52.6448 27.4622 52.1418 27.4627C50.3436 27.4646 48.545 27.4613 46.7468 27.4701C46.5342 27.471 46.505 27.3782 46.505 27.2065C46.5059 25.5914 46.5022 23.9763 46.5018 22.3608C46.5008 20.4073 46.5022 18.4534 46.5008 16.5C46.4994 16.3259 46.4851 16.151 46.4758 15.9465Z" fill="white"/>
<path d="M131.889 23.1473C131.942 23.6066 131.993 24.0322 132.04 24.4587C132.13 25.2831 132.218 26.1079 132.306 26.9328C132.315 27.0168 132.341 27.1096 132.316 27.1839C132.29 27.2619 132.222 27.3704 132.156 27.3838C130.534 27.7064 128.902 27.9284 127.242 27.8177C126.534 27.7706 125.826 27.7092 125.158 27.4479C123.904 26.9573 123.157 26.0161 122.894 24.7259C122.737 23.9546 122.639 23.1598 122.625 22.3732C122.587 20.3353 122.609 18.296 122.608 16.2576C122.607 15.9581 122.606 15.9585 122.304 15.959C121.649 15.9594 120.994 15.959 120.321 15.959C120.316 15.8648 120.308 15.79 120.308 15.7148C120.307 14.3914 120.312 13.0685 120.304 11.7451C120.302 11.5259 120.366 11.4483 120.593 11.4534C121.194 11.4673 121.797 11.4543 122.399 11.4626C122.561 11.465 122.612 11.4137 122.611 11.2526C122.604 10.4139 122.614 9.57567 122.603 8.73696C122.601 8.56248 122.668 8.47893 122.812 8.40461C124.104 7.74223 125.392 7.07339 126.682 6.40824C127.295 6.09205 127.909 5.77817 128.524 5.46568C128.577 5.4389 128.638 5.4269 128.727 5.39736C128.734 5.51507 128.745 5.61062 128.745 5.70616C128.742 7.55252 128.74 9.39842 128.732 11.2448C128.731 11.4211 128.794 11.4636 128.962 11.4622C129.935 11.4543 130.907 11.4589 131.88 11.4557C132.037 11.4553 132.143 11.471 132.142 11.675C132.135 13.0676 132.138 14.4597 132.137 15.8524C132.137 15.875 132.131 15.8976 132.125 15.9498C131.014 15.9498 129.9 15.9498 128.772 15.9498C128.761 16.0351 128.747 16.0933 128.747 16.1515C128.748 18.1211 128.75 20.0902 128.755 22.0598C128.756 22.2357 128.777 22.4129 128.806 22.5869C128.904 23.1727 129.29 23.523 129.924 23.4861C130.464 23.4547 130.997 23.3139 131.533 23.2202C131.644 23.2004 131.753 23.175 131.889 23.1473Z" fill="white"/>
<path d="M12.3028 27.027C10.4106 27.027 8.55219 27.027 6.67111 27.027C6.77394 26.4486 6.87631 25.885 6.97451 25.3205C7.3548 23.1432 7.73232 20.9649 8.11446 18.7881C8.34653 17.4647 8.58508 16.1427 8.81993 14.8202C8.97417 13.9515 9.13027 13.0828 9.27711 12.2127C9.30351 12.0553 9.35956 11.9916 9.52817 11.9921C11.2726 11.9972 13.0175 11.9949 14.7624 11.9953C14.8143 11.9953 14.8666 12.0087 14.9417 12.0189C14.0616 17.0243 13.1833 22.0178 12.3028 27.027Z" fill="white"/>
<path d="M13.3251 5.94757C11.8586 5.92449 10.726 4.74744 10.752 3.27405C10.7765 1.90175 11.9864 0.741311 13.376 0.757928C14.8138 0.775007 15.9857 1.97422 15.9635 3.4056C15.9422 4.81899 14.7471 5.97019 13.3251 5.94757Z" fill="white"/>
<path d="M27.4612 38.2071L25.9794 32.3865H26.7766L27.47 35.3314C27.6432 36.057 27.7993 36.7822 27.9031 37.3435H27.9202C28.0157 36.7647 28.1977 36.0741 28.3969 35.3227L29.1769 32.3865H29.9653L30.6759 35.3397C30.8403 36.0307 30.9964 36.7213 31.083 37.3347H31.1001C31.2215 36.6959 31.3859 36.0478 31.568 35.3227L32.3392 32.3865H33.1105L31.4554 38.2071H30.667L29.9306 35.1759C29.7485 34.4332 29.6272 33.8631 29.5493 33.276H29.5322C29.4284 33.8548 29.2983 34.4244 29.0815 35.1759L28.2496 38.2071H27.4612Z" fill="white"/>
<path d="M33.7701 32.0758H34.5325V34.6838H34.5497C34.671 34.4678 34.8619 34.2781 35.0958 34.1484C35.3209 34.0187 35.5896 33.9323 35.8758 33.9323C36.4391 33.9323 37.3405 34.2776 37.3405 35.7201V38.2071H36.578V35.8064C36.578 35.1329 36.3265 34.5629 35.6076 34.5629C35.1138 34.5629 34.7238 34.9081 34.5849 35.3227C34.5413 35.4265 34.533 35.5387 34.533 35.6855V38.2071H33.7705V32.0758H33.7701Z" fill="white"/>
<path d="M40.9021 38.2071L40.8414 37.6805H40.8155C40.5815 38.0086 40.1308 38.3022 39.5328 38.3022C38.6838 38.3022 38.2502 37.7063 38.2502 37.1021C38.2502 36.0917 39.1516 35.5391 40.7719 35.5474V35.4611C40.7719 35.1159 40.6765 34.4941 39.8186 34.4941C39.4286 34.4941 39.0215 34.615 38.7269 34.8052L38.5536 34.3044C38.9001 34.0801 39.4027 33.9333 39.9317 33.9333C41.2143 33.9333 41.526 34.8057 41.526 35.643V37.2059C41.526 37.5687 41.5431 37.9228 41.5955 38.2076H40.9021V38.2071ZM40.7895 36.0741C39.9576 36.057 39.0131 36.2038 39.0131 37.0153C39.0131 37.5074 39.3425 37.7409 39.7325 37.7409C40.2786 37.7409 40.6251 37.3957 40.7464 37.0416C40.7724 36.9641 40.79 36.8777 40.79 36.7997V36.0741H40.7895Z" fill="white"/>
<path d="M43.6405 32.8268V34.027H44.7323V34.6058H43.6405V36.8597C43.6405 37.3777 43.7878 37.6717 44.2126 37.6717C44.4118 37.6717 44.5591 37.6458 44.6545 37.62L44.6892 38.19C44.5419 38.2505 44.308 38.2939 44.0134 38.2939C43.6581 38.2939 43.3723 38.1817 43.1903 37.9745C42.9735 37.7502 42.8957 37.3786 42.8957 36.8865V34.6067H42.2458V34.0279H42.8957V33.0263L43.6405 32.8268Z" fill="white"/>
<path d="M46.7343 32.2914C46.5351 33.017 46.1622 33.9407 45.9195 34.3381L45.4341 34.3986C45.6249 33.889 45.85 32.9907 45.9455 32.3689L46.7343 32.2914Z" fill="white"/>
<path d="M46.8385 37.4298C47.0636 37.5766 47.4625 37.7322 47.8437 37.7322C48.3981 37.7322 48.6585 37.4557 48.6585 37.1104C48.6585 36.7476 48.4417 36.5491 47.8784 36.3418C47.1243 36.0741 46.769 35.6596 46.769 35.1588C46.769 34.4853 47.3152 33.9324 48.2161 33.9324C48.6409 33.9324 49.0133 34.0533 49.2472 34.1913L49.0564 34.7438C48.8919 34.64 48.5885 34.502 48.1985 34.502C47.7478 34.502 47.4967 34.7609 47.4967 35.072C47.4967 35.4173 47.7483 35.5728 48.2939 35.7801C49.0221 36.0566 49.3945 36.4189 49.3945 37.0407C49.3945 37.7746 48.8224 38.293 47.8261 38.293C47.3666 38.293 46.9423 38.1808 46.6477 38.0082L46.8385 37.4298Z" fill="white"/>
<path d="M52.2367 32.3864H55.3823V33.0169H52.9903V34.9514H55.2003V35.5732H52.9903V38.207H52.2362V32.3864H52.2367Z" fill="white"/>
<path d="M59.6378 37.067C59.6378 37.4986 59.6467 37.8789 59.6726 38.2071H58.9968L58.9532 37.5249H58.9361C58.7369 37.8619 58.295 38.3022 57.5497 38.3022C56.891 38.3022 56.1027 37.9394 56.1027 36.4715V34.0274H56.8651V36.3418C56.8651 37.1362 57.1078 37.6717 57.8012 37.6717C58.3126 37.6717 58.6679 37.3176 58.8064 36.9807C58.8499 36.8685 58.8759 36.73 58.8759 36.592V34.027H59.6383V37.067H59.6378Z" fill="white"/>
<path d="M61.3272 36.2555C61.3444 37.283 62.003 37.7062 62.7659 37.7062C63.3121 37.7062 63.6414 37.6111 63.9272 37.4902L64.0574 38.0344C63.7887 38.1554 63.3292 38.2934 62.6622 38.2934C61.3708 38.2934 60.5995 37.4473 60.5995 36.1862C60.5995 34.9252 61.3448 33.9323 62.5668 33.9323C63.936 33.9323 64.3001 35.1324 64.3001 35.9014C64.3001 36.057 64.2829 36.1779 64.2741 36.2555H61.3272ZM63.5631 35.7112C63.5719 35.2275 63.3639 34.4765 62.5061 34.4765C61.7348 34.4765 61.3967 35.1846 61.336 35.7112H63.5631Z" fill="white"/>
<path d="M65.244 32.0758H66.0065V38.2071H65.244V32.0758Z" fill="white"/>
<path d="M68.1391 32.8531C68.1479 33.1121 67.957 33.3194 67.6536 33.3194C67.385 33.3194 67.1941 33.1121 67.1941 32.8531C67.1941 32.5854 67.3933 32.3782 67.6708 32.3782C67.957 32.3782 68.1391 32.5854 68.1391 32.8531ZM67.2895 38.2071V34.0274H68.052V38.2071H67.2895Z" fill="white"/>
<path d="M69.3179 35.1588C69.3179 34.7272 69.3091 34.3727 69.2831 34.0274H69.9589L70.0025 34.7184H70.0196C70.2276 34.321 70.713 33.9328 71.406 33.9328C71.9864 33.9328 72.8878 34.278 72.8878 35.7117V38.2075H72.1253V35.7981C72.1253 35.1246 71.8738 34.5633 71.1549 34.5633C70.6524 34.5633 70.2623 34.9173 70.1322 35.3406C70.0974 35.4357 70.0803 35.5649 70.0803 35.6947V38.2075H69.3179V35.1588Z" fill="white"/>
<path d="M77.7405 34.0274C77.7234 34.3297 77.7058 34.6662 77.7058 35.1758V37.6024C77.7058 38.5611 77.515 39.1482 77.1078 39.511C76.7006 39.8909 76.1114 40.0119 75.5825 40.0119C75.0799 40.0119 74.5254 39.8909 74.1873 39.6666L74.3781 39.0878C74.6556 39.2604 75.0887 39.416 75.6089 39.416C76.3889 39.416 76.961 39.0102 76.961 37.9564V37.4902H76.9438C76.7099 37.8789 76.2592 38.1895 75.6093 38.1895C74.5694 38.1895 73.8241 37.3088 73.8241 36.1516C73.8241 34.7354 74.7515 33.9323 75.7135 33.9323C76.4417 33.9323 76.8401 34.3122 77.0221 34.6574H77.0392L77.074 34.0269H77.7405V34.0274ZM76.9522 35.6766C76.9522 35.5469 76.9434 35.4348 76.9086 35.3314C76.7701 34.891 76.3972 34.5282 75.8428 34.5282C75.1146 34.5282 74.5949 35.1412 74.5949 36.1087C74.5949 36.9289 75.0109 37.6111 75.834 37.6111C76.3018 37.6111 76.7266 37.3176 76.8915 36.8338C76.935 36.7041 76.9522 36.5573 76.9522 36.4281V35.6766Z" fill="white"/>
<path d="M81.7364 38.207V35.7371L79.8905 32.3864H80.7484L81.5715 33.9927C81.7966 34.4331 81.9703 34.7871 82.1519 35.1928H82.1695C82.334 34.813 82.5336 34.4331 82.7587 33.9927L83.5994 32.3864H84.4573L82.4989 35.7283V38.2066H81.7364V38.207Z" fill="white"/>
<path d="M88.2355 36.0829C88.2355 37.6287 87.1609 38.3022 86.1469 38.3022C85.0116 38.3022 84.1366 37.4732 84.1366 36.1521C84.1366 34.753 85.0552 33.9328 86.2164 33.9328C87.4208 33.9323 88.2355 34.8047 88.2355 36.0829ZM84.9079 36.1258C84.9079 37.0411 85.4364 37.7321 86.1817 37.7321C86.9098 37.7321 87.4555 37.0499 87.4555 36.1087C87.4555 35.4006 87.1002 34.5024 86.1988 34.5024C85.2979 34.5024 84.9079 35.3314 84.9079 36.1258Z" fill="white"/>
<path d="M92.7071 37.067C92.7071 37.4986 92.7159 37.8789 92.7418 38.2071H92.066L92.0224 37.5249H92.0053C91.8061 37.8619 91.3642 38.3022 90.6189 38.3022C89.9603 38.3022 89.1719 37.9394 89.1719 36.4715V34.0274H89.9343V36.3418C89.9343 37.1362 90.177 37.6717 90.8705 37.6717C91.3818 37.6717 91.7371 37.3176 91.8756 36.9807C91.9192 36.8685 91.9451 36.73 91.9451 36.592V34.027H92.7075V37.067H92.7071Z" fill="white"/>
<path d="M93.9721 35.3314C93.9721 34.8394 93.9633 34.4161 93.9374 34.0274H94.6049L94.6308 34.8477H94.6655C94.8564 34.2864 95.3154 33.9324 95.8268 33.9324C95.9134 33.9324 95.9741 33.9411 96.0436 33.9582V34.675C95.9658 34.6575 95.8875 34.6492 95.7837 34.6492C95.2464 34.6492 94.8652 35.0549 94.761 35.625C94.7438 35.7289 94.7262 35.8493 94.7262 35.979V38.2071H93.9721V35.3314Z" fill="white"/>
<path d="M98.669 32.4645C98.9983 32.3953 99.5181 32.3436 100.047 32.3436C100.801 32.3436 101.286 32.4733 101.65 32.7668C101.954 32.9912 102.136 33.3369 102.136 33.7943C102.136 34.3556 101.763 34.8477 101.148 35.0725V35.0896C101.702 35.2276 102.352 35.6855 102.352 36.5491C102.352 37.0499 102.153 37.4298 101.859 37.7151C101.451 38.0862 100.793 38.2593 99.8395 38.2593C99.3193 38.2593 98.921 38.2247 98.6695 38.19V32.4645H98.669ZM99.4226 34.8477H100.107C100.904 34.8477 101.372 34.4332 101.372 33.8719C101.372 33.1897 100.853 32.9219 100.09 32.9219C99.7432 32.9219 99.5435 32.9478 99.4222 32.9736V34.8477H99.4226ZM99.4226 37.6371C99.5699 37.6629 99.7867 37.6717 100.055 37.6717C100.835 37.6717 101.555 37.3869 101.555 36.5403C101.555 35.7459 100.87 35.4177 100.047 35.4177H99.4231V37.6371H99.4226Z" fill="white"/>
<path d="M106.85 37.067C106.85 37.4986 106.858 37.8789 106.884 38.2071H106.209L106.165 37.5249H106.148C105.949 37.8619 105.507 38.3022 104.762 38.3022C104.103 38.3022 103.314 37.9394 103.314 36.4715V34.0274H104.077V36.3418C104.077 37.1362 104.32 37.6717 105.013 37.6717C105.524 37.6717 105.88 37.3176 106.018 36.9807C106.062 36.8685 106.088 36.73 106.088 36.592V34.027H106.85V37.067H106.85Z" fill="white"/>
<path d="M108.01 37.4297C108.235 37.5765 108.634 37.7321 109.015 37.7321C109.57 37.7321 109.83 37.4556 109.83 37.1103C109.83 36.7475 109.613 36.549 109.05 36.3418C108.296 36.0741 107.941 35.6595 107.941 35.1587C107.941 34.4853 108.487 33.9323 109.388 33.9323C109.812 33.9323 110.185 34.0532 110.419 34.1912L110.228 34.7438C110.063 34.6399 109.76 34.5019 109.37 34.5019C108.919 34.5019 108.668 34.7608 108.668 35.0719C108.668 35.4172 108.92 35.5728 109.465 35.78C110.194 36.0565 110.566 36.4189 110.566 37.0406C110.566 37.7746 109.994 38.2929 108.998 38.2929C108.538 38.2929 108.114 38.1807 107.819 38.0081L108.01 37.4297Z" fill="white"/>
<path d="M112.396 32.8531C112.405 33.112 112.214 33.3193 111.911 33.3193C111.642 33.3193 111.451 33.112 111.451 32.8531C111.451 32.5853 111.65 32.3781 111.928 32.3781C112.214 32.3781 112.396 32.5853 112.396 32.8531ZM111.547 38.207V34.0273H112.309V38.207H111.547Z" fill="white"/>
<path d="M113.574 35.1588C113.574 34.7272 113.565 34.3727 113.539 34.0274H114.215L114.258 34.7184H114.275C114.483 34.321 114.969 33.9328 115.662 33.9328C116.242 33.9328 117.144 34.278 117.144 35.7117V38.2075H116.381V35.7981C116.381 35.1246 116.13 34.5633 115.411 34.5633C114.908 34.5633 114.518 34.9173 114.388 35.3406C114.353 35.4357 114.336 35.5649 114.336 35.6947V38.2075H113.574V35.1588Z" fill="white"/>
<path d="M118.809 36.2555C118.826 37.283 119.484 37.7062 120.247 37.7062C120.794 37.7062 121.123 37.6111 121.409 37.4902L121.539 38.0344C121.27 38.1554 120.811 38.2934 120.144 38.2934C118.852 38.2934 118.081 37.4473 118.081 36.1862C118.081 34.9252 118.826 33.9323 120.048 33.9323C121.417 33.9323 121.782 35.1324 121.782 35.9014C121.782 36.057 121.764 36.1779 121.756 36.2555H118.809ZM121.045 35.7112C121.053 35.2275 120.845 34.4765 119.987 34.4765C119.216 34.4765 118.878 35.1846 118.817 35.7112H121.045Z" fill="white"/>
<path d="M122.621 37.4298C122.847 37.5766 123.245 37.7322 123.627 37.7322C124.181 37.7322 124.441 37.4557 124.441 37.1104C124.441 36.7476 124.225 36.5491 123.661 36.3418C122.907 36.0741 122.552 35.6596 122.552 35.1588C122.552 34.4853 123.098 33.9324 123.999 33.9324C124.424 33.9324 124.796 34.0533 125.03 34.1913L124.839 34.7438C124.675 34.64 124.371 34.502 123.981 34.502C123.531 34.502 123.28 34.7609 123.28 35.072C123.28 35.4173 123.531 35.5728 124.077 35.7801C124.805 36.0566 125.177 36.4189 125.177 37.0407C125.177 37.7746 124.605 38.293 123.609 38.293C123.149 38.293 122.725 38.1808 122.431 38.0082L122.621 37.4298Z" fill="white"/>
<path d="M126.053 37.4298C126.278 37.5766 126.677 37.7322 127.058 37.7322C127.612 37.7322 127.873 37.4557 127.873 37.1104C127.873 36.7476 127.656 36.5491 127.093 36.3418C126.339 36.0741 125.983 35.6596 125.983 35.1588C125.983 34.4853 126.529 33.9324 127.43 33.9324C127.855 33.9324 128.228 34.0533 128.462 34.1913L128.271 34.7438C128.106 34.64 127.803 34.502 127.413 34.502C126.962 34.502 126.711 34.7609 126.711 35.072C126.711 35.4173 126.963 35.5728 127.508 35.7801C128.236 36.0566 128.609 36.4189 128.609 37.0407C128.609 37.7746 128.037 38.293 127.04 38.293C126.581 38.293 126.157 38.1808 125.862 38.0082L126.053 37.4298Z" fill="white"/>
<path d="M130.178 36.5579L130.161 36.3335C130.109 35.8673 130.265 35.3577 130.698 34.8394C131.088 34.3815 131.305 34.045 131.305 33.6563C131.305 33.216 131.027 32.9224 130.482 32.9136C130.169 32.9136 129.823 33.0175 129.606 33.1813L129.398 32.6371C129.684 32.4299 130.178 32.2919 130.637 32.2919C131.634 32.2919 132.084 32.9049 132.084 33.5612C132.084 34.1484 131.755 34.5717 131.339 35.0637C130.958 35.5128 130.819 35.8927 130.845 36.3331L130.854 36.5574H130.178V36.5579ZM129.987 37.7668C129.987 37.4474 130.204 37.2226 130.507 37.2226C130.81 37.2226 131.018 37.4469 131.018 37.7668C131.018 38.0691 130.819 38.3022 130.498 38.3022C130.195 38.3022 129.987 38.0691 129.987 37.7668Z" fill="white"/>
</svg>
